<svg width="237" height="89" viewBox="0 0 237 89" fill="none" xmlns="http://www.w3.org/2000/svg">
<g filter="url(#filter0_d_27_140)">
<g filter="url(#filter1_i_27_140)">
<path d="M77.2431 42.1774C77.2431 49.7795 71.1668 55.9081 63.7132 55.9081C56.2596 55.9081 50.1833 49.7795 50.1833 42.1774C50.1833 34.5753 56.2596 28.4467 63.7132 28.4467C71.1668 28.4467 77.2431 34.5753 77.2431 42.1774Z" fill="url(#paint0_linear_27_140)" fill-opacity="0.24" stroke="#CFB389" stroke-width="3"/>
<path d="M67.6085 38.6626C67.6085 40.8726 65.8458 42.63 63.7132 42.63C61.5806 42.63 59.8179 40.8726 59.8179 38.6626C59.8179 36.4526 61.5806 34.6952 63.7132 34.6952C65.8458 34.6952 67.6085 36.4526 67.6085 38.6626Z" fill="url(#paint1_linear_27_140)" stroke="#CFB389" stroke-width="3"/>
<path d="M54.8494 53.5027V53.5027C57.106 44.3466 70.1241 44.3973 72.5769 53.5027V53.5027" stroke="#CFB389" stroke-width="3"/>
</g>
<g filter="url(#filter2_i_27_140)">
<path d="M35.4031 17.281C35.4031 22.7931 31.042 27.2041 25.7323 27.2041C20.4226 27.2041 16.0615 22.7931 16.0615 17.281C16.0615 11.7689 20.4226 7.358 25.7323 7.358C31.042 7.358 35.4031 11.7689 35.4031 17.281Z" fill="url(#paint2_linear_27_140)" fill-opacity="0.24" stroke="#CFB389" stroke-width="3"/>
<path d="M28.2424 14.6449C28.2424 16.1129 27.0873 17.2455 25.7324 17.2455C24.3775 17.2455 23.2224 16.1129 23.2224 14.6449C23.2224 13.1769 24.3775 12.0443 25.7324 12.0443C27.0873 12.0443 28.2424 13.1769 28.2424 14.6449Z" fill="url(#paint3_linear_27_140)" stroke="#CFB389" stroke-width="3"/>
<path d="M19.1445 25.775V25.775C20.8103 18.9545 30.5095 18.9916 32.3203 25.775V25.775" stroke="#CFB389" stroke-width="3"/>
</g>
<g filter="url(#filter3_i_27_140)">
<path d="M37.8405 60.0781C37.8405 69.0363 30.5973 76.2921 21.6702 76.2921C12.7432 76.2921 5.5 69.0363 5.5 60.0781C5.5 51.1199 12.7432 43.8641 21.6702 43.8641C30.5973 43.8641 37.8405 51.1199 37.8405 60.0781Z" fill="url(#paint4_linear_27_140)" fill-opacity="0.24" stroke="#CFB389" stroke-width="3"/>
<path d="M26.5134 55.9903C26.5134 58.6772 24.3416 60.8491 21.6702 60.8491C18.9989 60.8491 16.8271 58.6772 16.8271 55.9903C16.8271 53.3033 18.9989 51.1314 21.6702 51.1314C24.3416 51.1314 26.5134 53.3033 26.5134 55.9903Z" fill="url(#paint5_linear_27_140)" stroke="#CFB389" stroke-width="3"/>
<path d="M11.2493 73.25V73.25C13.9238 62.5146 29.1842 62.5751 32.0911 73.25V73.25" stroke="#CFB389" stroke-width="3"/>
</g>
<g filter="url(#filter4_i_27_140)">
<line y1="-1.5" x2="15.0247" y2="-1.5" transform="matrix(-0.0811045 0.996706 -0.996378 -0.0850323 24.3106 27.456)" stroke="#CFB389" stroke-width="3"/>
</g>
<g filter="url(#filter5_i_27_140)">
<line y1="-1.5" x2="15.5165" y2="-1.5" transform="matrix(-0.890097 0.455772 -0.438736 -0.898616 51.933 50.3361)" stroke="#CFB389" stroke-width="3"/>
</g>
<g filter="url(#filter6_i_27_140)">
<line y1="-1.5" x2="20.658" y2="-1.5" transform="matrix(0.825876 0.563851 -0.545566 0.838068 35.2783 21.632)" stroke="#CFB389" stroke-width="3"/>
</g>
<g filter="url(#filter7_i_27_140)">
<line x1="96.941" y1="2.40594" x2="96.941" y2="81" stroke="#CFB389" stroke-width="3"/>
</g>
<g filter="url(#filter8_i_27_140)">
<path d="M121.521 40.0293H124.915C127.047 39.9967 128.724 39.4352 129.944 38.3447C131.165 37.2542 131.775 35.7812 131.775 33.9258C131.775 29.7591 129.7 27.6758 125.55 27.6758C123.597 27.6758 122.034 28.2373 120.862 29.3604C119.707 30.4671 119.129 31.9401 119.129 33.7793H114.612C114.612 30.9635 115.638 28.6279 117.688 26.7725C119.756 24.9007 122.376 23.9648 125.55 23.9648C128.903 23.9648 131.531 24.8519 133.436 26.626C135.34 28.4001 136.292 30.8659 136.292 34.0234C136.292 35.5697 135.787 37.0671 134.778 38.5156C133.785 39.9642 132.426 41.0465 130.701 41.7627C132.654 42.3812 134.16 43.4066 135.218 44.8389C136.292 46.2712 136.829 48.0208 136.829 50.0879C136.829 53.278 135.787 55.8089 133.704 57.6807C131.621 59.5524 128.911 60.4883 125.574 60.4883C122.238 60.4883 119.52 59.585 117.42 57.7783C115.337 55.9717 114.295 53.5872 114.295 50.625H118.836C118.836 52.4967 119.446 53.9941 120.667 55.1172C121.888 56.2402 123.523 56.8018 125.574 56.8018C127.755 56.8018 129.424 56.2321 130.579 55.0928C131.735 53.9535 132.312 52.3177 132.312 50.1855C132.312 48.1185 131.678 46.5316 130.408 45.4248C129.139 44.318 127.308 43.7484 124.915 43.7158H121.521V40.0293ZM160.755 24.4287V28.2617H159.925C156.409 28.3268 153.61 29.3685 151.526 31.3867C149.443 33.4049 148.239 36.2451 147.913 39.9072C149.785 37.7588 152.34 36.6846 155.579 36.6846C158.672 36.6846 161.137 37.7751 162.977 39.9561C164.832 42.137 165.76 44.9528 165.76 48.4033C165.76 52.0654 164.759 54.9951 162.757 57.1924C160.771 59.3896 158.102 60.4883 154.749 60.4883C151.347 60.4883 148.589 59.1862 146.473 56.582C144.357 53.9616 143.299 50.5924 143.299 46.4746V44.7412C143.299 38.1982 144.69 33.2015 147.474 29.751C150.273 26.2842 154.432 24.5101 159.949 24.4287H160.755ZM154.822 40.4443C153.276 40.4443 151.852 40.9082 150.55 41.8359C149.248 42.7637 148.344 43.9274 147.84 45.3271V46.9873C147.84 49.917 148.499 52.277 149.817 54.0674C151.136 55.8577 152.78 56.7529 154.749 56.7529C156.784 56.7529 158.379 56.0042 159.534 54.5068C160.706 53.0094 161.292 51.0482 161.292 48.623C161.292 46.1816 160.698 44.2122 159.51 42.7148C158.338 41.2012 156.775 40.4443 154.822 40.4443ZM193.396 44.8389C193.396 50.1286 192.493 54.0592 190.687 56.6309C188.88 59.2025 186.056 60.4883 182.215 60.4883C178.423 60.4883 175.615 59.235 173.792 56.7285C171.969 54.2057 171.025 50.446 170.96 45.4492V39.4189C170.96 34.1943 171.863 30.3125 173.67 27.7734C175.477 25.2344 178.309 23.9648 182.166 23.9648C185.991 23.9648 188.807 25.1937 190.613 27.6514C192.42 30.0928 193.348 33.8688 193.396 38.9795V44.8389ZM188.88 38.6621C188.88 34.8372 188.343 32.054 187.269 30.3125C186.194 28.5547 184.493 27.6758 182.166 27.6758C179.855 27.6758 178.17 28.5465 177.112 30.2881C176.054 32.0296 175.509 34.707 175.477 38.3203V45.5469C175.477 49.388 176.03 52.2282 177.137 54.0674C178.26 55.8903 179.952 56.8018 182.215 56.8018C184.445 56.8018 186.097 55.9391 187.171 54.2139C188.261 52.4886 188.831 49.7705 188.88 46.0596V38.6621ZM199.207 32.583C199.207 30.0114 199.972 27.9362 201.502 26.3574C203.032 24.7624 205.05 23.9648 207.557 23.9648C210.079 23.9648 212.106 24.7542 213.636 26.333C215.166 27.8955 215.931 30.0277 215.931 32.7295V34.5361C215.931 37.124 215.166 39.2074 213.636 40.7861C212.122 42.3649 210.112 43.1543 207.605 43.1543C205.099 43.1543 203.073 42.3649 201.526 40.7861C199.98 39.2074 199.207 37.0752 199.207 34.3896V32.583ZM203.187 34.5361C203.187 36.1637 203.577 37.4414 204.358 38.3691C205.156 39.2969 206.238 39.7607 207.605 39.7607C208.956 39.7607 210.014 39.2969 210.779 38.3691C211.561 37.4251 211.951 36.1312 211.951 34.4873V32.583C211.951 30.9717 211.552 29.7021 210.755 28.7744C209.974 27.8467 208.908 27.3828 207.557 27.3828C206.238 27.3828 205.188 27.8304 204.407 28.7256C203.626 29.6208 203.219 30.8577 203.187 32.4365V34.5361Z" fill="#CFB389"/>
</g>
</g>
<defs>
<filter id="filter0_d_27_140" x="0" y="2.40594" width="219.931" height="86.5941" filterUnits="userSpaceOnUse" color-interpolation-filters="sRGB">
<feFlood flood-opacity="0" result="BackgroundImageFix"/>
<feColorMatrix in="SourceAlpha" type="matrix" values="0 0 0 0 0 0 0 0 0 0 0 0 0 0 0 0 0 0 127 0" result="hardAlpha"/>
<feOffset dy="4"/>
<feGaussianBlur stdDeviation="2"/>
<feComposite in2="hardAlpha" operator="out"/>
<feColorMatrix type="matrix" values="0 0 0 0 0 0 0 0 0 0 0 0 0 0 0 0 0 0 0.25 0"/>
<feBlend mode="normal" in2="BackgroundImageFix" result="effect1_dropShadow_27_140"/>
<feBlend mode="normal" in="SourceGraphic" in2="effect1_dropShadow_27_140" result="shape"/>
</filter>
<filter id="filter1_i_27_140" x="48.6833" y="26.9467" width="30.0597" height="34.4614" filterUnits="userSpaceOnUse" color-interpolation-filters="sRGB">
<feFlood flood-opacity="0" result="BackgroundImageFix"/>
<feBlend mode="normal" in="SourceGraphic" in2="BackgroundImageFix" result="shape"/>
<feColorMatrix in="SourceAlpha" type="matrix" values="0 0 0 0 0 0 0 0 0 0 0 0 0 0 0 0 0 0 127 0" result="hardAlpha"/>
<feOffset dy="4"/>
<feGaussianBlur stdDeviation="2"/>
<feComposite in2="hardAlpha" operator="arithmetic" k2="-1" k3="1"/>
<feColorMatrix type="matrix" values="0 0 0 0 0 0 0 0 0 0 0 0 0 0 0 0 0 0 0.25 0"/>
<feBlend mode="normal" in2="shape" result="effect1_innerShadow_27_140"/>
</filter>
<filter id="filter2_i_27_140" x="14.5615" y="5.858" width="22.3417" height="26.8461" filterUnits="userSpaceOnUse" color-interpolation-filters="sRGB">
<feFlood flood-opacity="0" result="BackgroundImageFix"/>
<feBlend mode="normal" in="SourceGraphic" in2="BackgroundImageFix" result="shape"/>
<feColorMatrix in="SourceAlpha" type="matrix" values="0 0 0 0 0 0 0 0 0 0 0 0 0 0 0 0 0 0 127 0" result="hardAlpha"/>
<feOffset dy="4"/>
<feGaussianBlur stdDeviation="2"/>
<feComposite in2="hardAlpha" operator="arithmetic" k2="-1" k3="1"/>
<feColorMatrix type="matrix" values="0 0 0 0 0 0 0 0 0 0 0 0 0 0 0 0 0 0 0.25 0"/>
<feBlend mode="normal" in2="shape" result="effect1_innerShadow_27_140"/>
</filter>
<filter id="filter3_i_27_140" x="4" y="42.3641" width="35.3405" height="39.4279" filterUnits="userSpaceOnUse" color-interpolation-filters="sRGB">
<feFlood flood-opacity="0" result="BackgroundImageFix"/>
<feBlend mode="normal" in="SourceGraphic" in2="BackgroundImageFix" result="shape"/>
<feColorMatrix in="SourceAlpha" type="matrix" values="0 0 0 0 0 0 0 0 0 0 0 0 0 0 0 0 0 0 127 0" result="hardAlpha"/>
<feOffset dy="4"/>
<feGaussianBlur stdDeviation="2"/>
<feComposite in2="hardAlpha" operator="arithmetic" k2="-1" k3="1"/>
<feColorMatrix type="matrix" values="0 0 0 0 0 0 0 0 0 0 0 0 0 0 0 0 0 0 0.25 0"/>
<feBlend mode="normal" in2="shape" result="effect1_innerShadow_27_140"/>
</filter>
<filter id="filter4_i_27_140" x="23.092" y="27.456" width="4.2077" height="19.2303" filterUnits="userSpaceOnUse" color-interpolation-filters="sRGB">
<feFlood flood-opacity="0" result="BackgroundImageFix"/>
<feBlend mode="normal" in="SourceGraphic" in2="BackgroundImageFix" result="shape"/>
<feColorMatrix in="SourceAlpha" type="matrix" values="0 0 0 0 0 0 0 0 0 0 0 0 0 0 0 0 0 0 127 0" result="hardAlpha"/>
<feOffset dy="4"/>
<feGaussianBlur stdDeviation="2"/>
<feComposite in2="hardAlpha" operator="arithmetic" k2="-1" k3="1"/>
<feColorMatrix type="matrix" values="0 0 0 0 0 0 0 0 0 0 0 0 0 0 0 0 0 0 0.25 0"/>
<feBlend mode="normal" in2="shape" result="effect1_innerShadow_27_140"/>
</filter>
<filter id="filter5_i_27_140" x="38.1218" y="50.3361" width="15.1274" height="13.7679" filterUnits="userSpaceOnUse" color-interpolation-filters="sRGB">
<feFlood flood-opacity="0" result="BackgroundImageFix"/>
<feBlend mode="normal" in="SourceGraphic" in2="BackgroundImageFix" result="shape"/>
<feColorMatrix in="SourceAlpha" type="matrix" values="0 0 0 0 0 0 0 0 0 0 0 0 0 0 0 0 0 0 127 0" result="hardAlpha"/>
<feOffset dy="4"/>
<feGaussianBlur stdDeviation="2"/>
<feComposite in2="hardAlpha" operator="arithmetic" k2="-1" k3="1"/>
<feColorMatrix type="matrix" values="0 0 0 0 0 0 0 0 0 0 0 0 0 0 0 0 0 0 0.25 0"/>
<feBlend mode="normal" in2="shape" result="effect1_innerShadow_27_140"/>
</filter>
<filter id="filter6_i_27_140" x="35.2783" y="19.1178" width="18.6976" height="18.1622" filterUnits="userSpaceOnUse" color-interpolation-filters="sRGB">
<feFlood flood-opacity="0" result="BackgroundImageFix"/>
<feBlend mode="normal" in="SourceGraphic" in2="BackgroundImageFix" result="shape"/>
<feColorMatrix in="SourceAlpha" type="matrix" values="0 0 0 0 0 0 0 0 0 0 0 0 0 0 0 0 0 0 127 0" result="hardAlpha"/>
<feOffset dy="4"/>
<feGaussianBlur stdDeviation="2"/>
<feComposite in2="hardAlpha" operator="arithmetic" k2="-1" k3="1"/>
<feColorMatrix type="matrix" values="0 0 0 0 0 0 0 0 0 0 0 0 0 0 0 0 0 0 0.25 0"/>
<feBlend mode="normal" in2="shape" result="effect1_innerShadow_27_140"/>
</filter>
<filter id="filter7_i_27_140" x="95.441" y="2.40594" width="3" height="82.5941" filterUnits="userSpaceOnUse" color-interpolation-filters="sRGB">
<feFlood flood-opacity="0" result="BackgroundImageFix"/>
<feBlend mode="normal" in="SourceGraphic" in2="BackgroundImageFix" result="shape"/>
<feColorMatrix in="SourceAlpha" type="matrix" values="0 0 0 0 0 0 0 0 0 0 0 0 0 0 0 0 0 0 127 0" result="hardAlpha"/>
<feOffset dy="4"/>
<feGaussianBlur stdDeviation="2"/>
<feComposite in2="hardAlpha" operator="arithmetic" k2="-1" k3="1"/>
<feColorMatrix type="matrix" values="0 0 0 0 0 0 0 0 0 0 0 0 0 0 0 0 0 0 0.25 0"/>
<feBlend mode="normal" in2="shape" result="effect1_innerShadow_27_140"/>
</filter>
<filter id="filter8_i_27_140" x="114.295" y="23.9648" width="101.636" height="40.5234" filterUnits="userSpaceOnUse" color-interpolation-filters="sRGB">
<feFlood flood-opacity="0" result="BackgroundImageFix"/>
<feBlend mode="normal" in="SourceGraphic" in2="BackgroundImageFix" result="shape"/>
<feColorMatrix in="SourceAlpha" type="matrix" values="0 0 0 0 0 0 0 0 0 0 0 0 0 0 0 0 0 0 127 0" result="hardAlpha"/>
<feOffset dy="4"/>
<feGaussianBlur stdDeviation="2"/>
<feComposite in2="hardAlpha" operator="arithmetic" k2="-1" k3="1"/>
<feColorMatrix type="matrix" values="0 0 0 0 0 0 0 0 0 0 0 0 0 0 0 0 0 0 0.25 0"/>
<feBlend mode="normal" in2="shape" result="effect1_innerShadow_27_140"/>
</filter>
<linearGradient id="paint0_linear_27_140" x1="63.7132" y1="26.9467" x2="63.7132" y2="57.4081" gradientUnits="userSpaceOnUse">
<stop stop-color="#CFB389" stop-opacity="0"/>
<stop offset="0.65625" stop-color="#CFB389"/>
<stop offset="0.9999" stop-color="#CFB389"/>
</linearGradient>
<linearGradient id="paint1_linear_27_140" x1="63.7132" y1="33.1952" x2="63.7132" y2="44.13" gradientUnits="userSpaceOnUse">
<stop stop-color="#CFB389" stop-opacity="0"/>
<stop offset="0.0001" stop-color="#CFB389" stop-opacity="0"/>
<stop offset="1" stop-color="#CFB389"/>
</linearGradient>
<linearGradient id="paint2_linear_27_140" x1="25.7323" y1="5.858" x2="25.7323" y2="28.7041" gradientUnits="userSpaceOnUse">
<stop stop-color="#CFB389" stop-opacity="0"/>
<stop offset="0.651042" stop-color="#CFB389"/>
<stop offset="0.9999" stop-color="#CFB389"/>
</linearGradient>
<linearGradient id="paint3_linear_27_140" x1="25.7324" y1="10.5443" x2="25.7324" y2="18.7455" gradientUnits="userSpaceOnUse">
<stop stop-color="#CFB389" stop-opacity="0"/>
<stop offset="0.0001" stop-color="#CFB389" stop-opacity="0"/>
<stop offset="1" stop-color="#CFB389"/>
</linearGradient>
<linearGradient id="paint4_linear_27_140" x1="21.6702" y1="42.3641" x2="21.6702" y2="77.7921" gradientUnits="userSpaceOnUse">
<stop stop-color="#CFB389" stop-opacity="0"/>
<stop offset="0.650942" stop-color="#CFB389"/>
<stop offset="1" stop-color="#CFB389"/>
</linearGradient>
<linearGradient id="paint5_linear_27_140" x1="21.6702" y1="49.6314" x2="21.6702" y2="62.3491" gradientUnits="userSpaceOnUse">
<stop stop-color="#CFB389" stop-opacity="0"/>
<stop offset="0.0001" stop-color="#CFB389" stop-opacity="0"/>
<stop offset="1" stop-color="#CFB389"/>
</linearGradient>
</defs>
</svg>
