<svg width="55" height="58" viewBox="0 0 55 58" fill="none" xmlns="http://www.w3.org/2000/svg">
<path d="M16.9853 46.2721L28.9021 13.4851M16.9853 46.2721L2 42.1565M16.9853 46.2721L11.1215 51.1361M2 42.1565L11.5558 13.9082L13.3233 9.60544M2 42.1565C2 42.1565 2.4214 43.8158 2.83632 45.5238C3.20948 47.0599 3.57741 48.6353 3.62883 49.0782M13.3233 9.60544L16.2907 2.38171C16.4594 1.97114 16.7608 1.62775 17.1457 1.40671V1.40671C17.599 1.14643 18.1373 1.07322 18.6433 1.20399L29.8483 4.09955C30.4957 4.26685 31.0167 4.74665 31.2367 5.37814L31.3021 5.56599C31.4535 6.00071 31.4503 6.47435 31.293 6.90698L28.9021 13.4851M13.3233 9.60544L28.9021 13.4851M3.62883 49.0782C3.73742 50.0136 5.25766 56 5.25766 56L11.1215 51.1361M3.62883 49.0782L11.1215 51.1361M29.5 39.4003H42.1677M55 39.4003H42.1677M42.1677 39.4003V28.8021M42.1677 39.4003V49.9986" stroke="black" stroke-width="2"/>
</svg>
