<svg width="57" height="55" viewBox="0 0 57 55" fill="none" xmlns="http://www.w3.org/2000/svg">
<g filter="url(#filter0_d_397_564)">
<path d="M41.0808 11.0918L38.6118 7.91095C38.5174 7.78932 38.4092 7.67899 38.2895 7.58217L34.859 4.80791C34.7346 4.70731 34.5986 4.622 34.4538 4.5538L30.7983 2.83142C30.6906 2.78064 30.5785 2.7396 30.4634 2.70877L27.9066 2.02381L24.6334 1.62046C24.4428 1.59696 24.2497 1.60106 24.0603 1.63261L20.1031 2.29159C20.0042 2.30806 19.9067 2.33194 19.8114 2.36303L16.1455 3.55884C15.9951 3.60788 15.8512 3.67456 15.7166 3.75751L12.3637 5.82336C12.2029 5.92248 12.0569 6.04389 11.9301 6.18398L8.84939 9.58759C8.73644 9.71237 8.6397 9.85091 8.56146 9.99993L6.20568 14.4864C6.11451 14.6601 6.04937 14.8462 6.01236 15.0387L5.05615 20.014C5.01892 20.2077 5.01055 20.4058 5.03131 20.602L5.34073 23.5252C5.35094 23.6217 5.36815 23.7172 5.39222 23.8112L6.06818 26.449L6.95208 28.8997C6.99571 29.0207 7.05091 29.1372 7.11691 29.2476L8.60588 31.7378C8.65476 31.8195 8.70942 31.8977 8.76943 31.9716L10.4262 34.0132C10.5272 34.1377 10.6429 34.2497 10.7707 34.3466L12.1212 35.3707L11.2904 42.6837L18.2929 39.1735H18.7677L21.0227 39.7585L24.5748 40.1689C24.7381 40.1877 24.9031 40.1864 25.0661 40.1649L27.9495 39.7842C28.0788 39.7671 28.2061 39.7374 28.3297 39.6956L32.6315 38.2378C32.804 38.1793 32.9677 38.0976 33.118 37.9948L36.3156 35.8095M41.0808 11.0918L35.8586 33.1769M41.0808 11.0918L42.0467 7.72789M44.048 36.3946L50.5605 10.7611M44.048 36.3946L35.8586 33.1769M44.048 36.3946L40.8434 40.1973M35.8586 33.1769C35.8586 33.1769 36.0889 34.4742 36.3156 35.8095M42.0467 7.72789L43.7212 1.89654C43.7794 1.69367 43.8979 1.51329 44.061 1.3793V1.3793C44.347 1.14439 44.7361 1.07888 45.0832 1.20719L50.6819 3.27698C51.2833 3.49934 51.7349 4.00621 51.8866 4.62927V4.62927C51.9611 4.93525 51.9595 5.25482 51.8819 5.56004L50.5605 10.7611M42.0467 7.72789L50.5605 10.7611M36.7487 38.5884C36.8081 39.3197 37.6389 44 37.6389 44L40.8434 40.1973M36.7487 38.5884L40.8434 40.1973M36.7487 38.5884C36.7206 38.2422 36.5196 37.0105 36.3156 35.8095" stroke="black" stroke-width="2" shape-rendering="crispEdges"/>
</g>
<path d="M16.8181 20.8913C16.8181 22.2406 15.9649 22.9627 15.3257 22.9627C14.6865 22.9627 13.8333 22.2406 13.8333 20.8913C13.8333 19.5419 14.6865 18.8198 15.3257 18.8198C15.9649 18.8198 16.8181 19.5419 16.8181 20.8913Z" stroke="black" stroke-width="2"/>
<path d="M26.0757 20.8913C26.0757 22.2406 25.2224 22.9627 24.5832 22.9627C23.944 22.9627 23.0908 22.2406 23.0908 20.8913C23.0908 19.5419 23.944 18.8198 24.5832 18.8198C25.2224 18.8198 26.0757 19.5419 26.0757 20.8913Z" stroke="black" stroke-width="2"/>
<path d="M35.3332 20.8913C35.3332 22.2406 34.48 22.9627 33.8408 22.9627C33.2016 22.9627 32.3484 22.2406 32.3484 20.8913C32.3484 19.5419 33.2016 18.8198 33.8408 18.8198C34.48 18.8198 35.3332 19.5419 35.3332 20.8913Z" stroke="black" stroke-width="2"/>
<defs>
<filter id="filter0_d_397_564" x="0.0202637" y="0.142578" width="56.9209" height="54.1348" filterUnits="userSpaceOnUse" color-interpolation-filters="sRGB">
<feFlood flood-opacity="0" result="BackgroundImageFix"/>
<feColorMatrix in="SourceAlpha" type="matrix" values="0 0 0 0 0 0 0 0 0 0 0 0 0 0 0 0 0 0 127 0" result="hardAlpha"/>
<feOffset dy="4"/>
<feGaussianBlur stdDeviation="2"/>
<feComposite in2="hardAlpha" operator="out"/>
<feColorMatrix type="matrix" values="0 0 0 0 0 0 0 0 0 0 0 0 0 0 0 0 0 0 0.25 0"/>
<feBlend mode="normal" in2="BackgroundImageFix" result="effect1_dropShadow_397_564"/>
<feBlend mode="normal" in="SourceGraphic" in2="effect1_dropShadow_397_564" result="shape"/>
</filter>
</defs>
</svg>
