<svg width="48" height="54" viewBox="0 0 48 54" fill="none" xmlns="http://www.w3.org/2000/svg">
<path d="M42.1374 14.1335L39.3944 49.3696L39.2824 50.4374L39.0585 50.9179L38.6667 51.3984L38.1069 51.9856L37.5471 52.4661L36.1476 53H12.5802L11.4046 52.6797L10.4529 52.1992L9.78117 51.4517L9.33333 50.4908L9.05344 49.3696L7.93384 33.193L6.47837 14.1335M42.1374 14.1335H45.1603L45.8321 13.5462L46 12.692L45.8321 11.6242L45.4962 9.86242L44.9924 8.52772L44.3206 7.56673L43.5369 7.24641L42.5293 7.03285L30.4377 6.87269M42.1374 14.1335H6.47837M6.47837 14.1335H3.06361L2.39186 13.5996L2.05598 13.1191L2 12.692L3.06361 8.47433L3.28753 8.04723L3.67939 7.56673L4.35115 7.08624L5.07888 6.87269H17.5064M13.8117 18.4045L15.4911 47.8747M23.7761 18.4045V47.8747M33.4046 18.4045L31.8931 47.8747M17.5064 6.87269L30.4377 6.87269M17.5064 6.87269V3.56263L17.7863 2.06776L18.7379 1.32033L20.2494 1H24.112H27.1908H29.2061L30.1018 1.53388L30.4377 2.3347V6.87269" stroke="black" stroke-width="2"/>
</svg>
