<svg width="59" height="58" viewBox="0 0 59 58" fill="none" xmlns="http://www.w3.org/2000/svg">
<path d="M1 6V25.304C1 28.0654 3.23858 30.304 6 30.304H7.62857V37.5345C7.62857 38.4422 8.74048 38.8803 9.35972 38.2167L16.7429 30.304H35.3857L39.9429 24.976V6C39.9429 3.23858 37.7043 1 34.9429 1H6C3.23858 1 1 3.23857 1 6Z" stroke="white" stroke-width="2"/>
<path d="M8.23334 17.2071L8.87143 15.1024L9.50952 17.2071L10.4665 16.917L9.50952 17.2071C9.73958 17.966 10.4391 18.4849 11.2321 18.4849H13.4457L11.55 19.9609C10.9624 20.4185 10.7172 21.1907 10.9333 21.9034L11.6273 24.1925L9.9773 22.9077C9.32699 22.4014 8.41586 22.4014 7.76556 22.9077L6.11555 24.1925L6.80955 21.9034C7.02563 21.1907 6.78047 20.4185 6.19284 19.9609L4.2972 18.4849H6.51077C7.30372 18.4849 8.00328 17.966 8.23334 17.2071Z" stroke="white" stroke-width="2"/>
<path d="M30.6048 17.2071L31.2429 15.1024L31.8809 17.2071L32.8379 16.917L31.8809 17.2071C32.111 17.966 32.8106 18.4849 33.6035 18.4849H35.8171L33.9214 19.9609C33.3338 20.4185 33.0887 21.1907 33.3047 21.9034L33.9987 24.1925L32.3487 22.9077C31.6984 22.4014 30.7873 22.4014 30.137 22.9077L28.487 24.1925L29.181 21.9034C29.3971 21.1907 29.1519 20.4185 28.5643 19.9609L26.6686 18.4849H28.8822C29.6752 18.4849 30.3747 17.966 30.6048 17.2071Z" stroke="white" stroke-width="2"/>
<path d="M19.8333 6.55137L20.4714 4.44668L21.1095 6.55137L22.0665 6.26124L21.1095 6.55137C21.3396 7.31022 22.0391 7.82913 22.8321 7.82913H25.0457L23.15 9.30517C22.5624 9.76273 22.3172 10.5349 22.5333 11.2476L23.2273 13.5367L21.5773 12.252C20.927 11.7456 20.0159 11.7456 19.3656 12.252L17.7156 13.5367L18.4095 11.2476C18.6256 10.5349 18.3805 9.76273 17.7928 9.30518L15.8972 7.82913H18.1108C18.9037 7.82913 19.6033 7.31022 19.8333 6.55137Z" stroke="white" stroke-width="2"/>
<path d="M47.4 41.8478H49.8857M24.6143 53.8358L29.6066 55.295C32.3406 56.0941 35.1746 56.4998 38.0231 56.4998H47.4H48.526C49.3933 56.4998 50.2217 56.1397 50.8133 55.5056V55.5056C51.6683 54.5893 51.6027 53.1492 50.668 52.3145L49.8857 51.6158M24.6143 53.8358L24.0442 54.5689C23.0969 55.7872 21.6402 56.4998 20.097 56.4998H17.9864C16.6978 56.4998 15.5005 55.8345 14.8198 54.7403V54.7403C14.452 54.1491 14.2571 53.4668 14.2571 52.7705V38.917C14.2571 38.2208 14.452 37.5384 14.8198 36.9472V36.9472C15.5005 35.853 16.6978 35.1878 17.9864 35.1878H20.097C21.6402 35.1878 23.0969 35.9003 24.0442 37.1186L24.6143 37.8518M24.6143 53.8358V37.8518M24.6143 37.8518H27.865C29.4664 37.8518 30.971 37.0847 31.9116 35.7885L38.5391 26.6563C38.9004 26.1585 39.4784 25.8638 40.0936 25.8638V25.8638C41.1544 25.8638 42.0143 26.7237 42.0143 27.7845V28.1294C42.0143 28.393 41.9683 28.6545 41.8784 28.9022L39.1143 36.5198H49.1888C50.1278 36.5198 50.9902 37.0373 51.432 37.8658V37.8658C51.9834 38.9 51.7563 40.1771 50.8822 40.9578L49.8857 41.8478M49.8857 41.8478V41.8478C52.375 42.3328 52.6116 45.8022 50.2112 46.6208L49.8857 46.7318M49.8857 46.7318H47.4M49.8857 46.7318V46.7318C52.375 47.2168 52.6116 50.6862 50.2112 51.5048L49.8857 51.6158M49.8857 51.6158H47.4" stroke="white" stroke-width="2"/>
</svg>
