<svg width="48" height="42" viewBox="0 0 48 42" fill="none" xmlns="http://www.w3.org/2000/svg">
<path d="M39.8849 40.875V36.75H45.7554L43.4829 38.8125L45.7554 40.875H39.8849Z" fill="black" fill-opacity="0.25" stroke="black"/>
<path d="M7.25183 40.875V36.75H1.38133L3.65378 38.8125L1.38133 40.875H7.25183Z" fill="black" fill-opacity="0.25" stroke="black"/>
<path d="M24.0617 5.9886C24.2384 5.59479 24.7975 5.5948 24.9741 5.9886L28.1938 13.1659C28.3963 13.6173 28.8084 13.9399 29.2953 14.028L36.4826 15.3284C36.8652 15.3976 37.0259 15.858 36.7693 16.1503L31.4789 22.1767C31.1913 22.5042 31.0605 22.9406 31.1203 23.3723L32.2664 31.6387C32.3236 32.0511 31.8811 32.3487 31.5207 32.1401L25.2693 28.5221C24.8045 28.2532 24.2314 28.2532 23.7666 28.5221L17.5152 32.1401C17.1548 32.3487 16.7123 32.0511 16.7695 31.6387L17.9156 23.3723C17.9754 22.9406 17.8446 22.5042 17.557 22.1767L12.2666 16.1503C12.01 15.858 12.1706 15.3976 12.5533 15.3284L19.7406 14.028C20.2275 13.9399 20.6396 13.6173 20.8421 13.1659L24.0617 5.9886Z" fill="black" fill-opacity="0.25" stroke="black"/>
<path d="M16.7482 4.68738L19.4907 9.76773C19.6143 9.99676 19.6438 10.265 19.5728 10.5154L19.1698 11.9375C19.0622 12.3176 18.7409 12.5986 18.35 12.6548L9.13164 13.9797C8.33501 14.0942 7.99311 15.0549 8.53829 15.6469L14.3735 21.9836C14.7991 22.4458 14.6981 23.1814 14.1635 23.5117L7.00959 27.9319C6.28607 28.3789 5.37023 27.7761 5.49474 26.9347L6.59623 19.492C6.68338 18.9032 6.50367 18.306 6.10596 17.8631L1.23695 12.4401C0.705664 11.8483 1.0442 10.9032 1.83037 10.7834L8.80604 9.72023C9.4547 9.62137 10.0136 9.21062 10.3017 8.62109L13.4932 2.08939C13.8473 1.36468 14.8696 1.33585 15.264 2.03946L16.7482 4.68738Z" fill="black" fill-opacity="0.25" stroke="black"/>
<path d="M31.9424 5.25L29.8622 9.4795C29.7562 9.69508 29.7313 9.94164 29.7922 10.1741L30.174 11.633C30.2748 12.0181 30.5944 12.3067 30.9877 12.3679L39.4911 13.6909C40.2636 13.8111 40.6056 14.7315 40.0991 15.327L34.5994 21.792C34.212 22.2474 34.3082 22.9388 34.8051 23.2712L41.3358 27.6391C42.0525 28.1185 42.9993 27.5267 42.8825 26.6724L41.8578 19.1774C41.7819 18.6224 41.9423 18.0609 42.3 17.6297L46.8874 12.0987C47.3804 11.5044 47.0424 10.5994 46.2805 10.4737L39.9056 9.42189C39.2455 9.31298 38.6836 8.8812 38.4083 8.27139L35.5222 1.87757C35.1788 1.11662 34.1092 1.08674 33.7237 1.82732L31.9424 5.25Z" fill="black" fill-opacity="0.25" stroke="black"/>
<rect x="9.47845" y="35" width="28.0072" height="6.5" rx="1.5" stroke="black"/>
</svg>
