<svg width="30" height="30" viewBox="0 0 65 52" fill="none" xmlns="http://www.w3.org/2000/svg">
<path d="M45.5 1H6C3.23858 1 1 3.23858 1 6V36C1 38.7614 3.23858 41 6 41H12.5C13.0523 41 13.5 41.4477 13.5 42V49.4069C13.5 50.2475 14.4743 50.713 15.1283 50.1848L25.1254 42.1103C26.0148 41.3919 27.1237 41 28.267 41H45.5C48.2614 41 50.5 38.7614 50.5 36V6C50.5 3.23858 48.2614 1 45.5 1Z" stroke="white" stroke-width="2"/>
<circle cx="34.5" cy="14.5" r="8.5" fill="white"/>
<rect x="32" y="12.5698" width="10" height="6" transform="rotate(-45 32 12.5698)" fill="black" fill-opacity="0.81"/>
<rect x="11.9616" y="32.5298" width="24.2259" height="6" rx="3" transform="rotate(-45 11.9616 32.5298)" fill="white"/>
<rect x="35.0919" y="36.7725" width="28.6597" height="6" rx="3" transform="rotate(-135 35.0919 36.7725)" fill="white"/>
<path d="M13.2706 7.72676L10.3924 10.6051L11.8878 15.5544L16.8371 17.0498L19.7154 14.1715L18.22 9.22217L13.2706 7.72676Z" fill="white" stroke="white"/>
</svg>
