<svg width="20" height="20" viewBox="0 0 43 47" fill="none" xmlns="http://www.w3.org/2000/svg">
<path d="M4.83861 29.9114L9.6519 24.462L14.8354 19.0127L22.3639 10.9051M4.83861 29.9114L2 44L14.8354 40.8101M4.83861 29.9114L6.56646 33.7658L8.66456 36.557M14.8354 40.8101L11.75 38.9494L8.66456 36.557M14.8354 40.8101L23.7832 31.4041L32.731 21.9981M8.66456 36.557L27.5475 16.6203M27.5475 16.6203L22.3639 10.9051M27.5475 16.6203L32.731 21.9981M22.3639 10.9051L26.3133 6.91772M32.731 21.9981L36.6099 17.9494M26.3133 6.91772L30.1392 2.79747L32.731 2L35.0759 2.79747L41 9.31013V12.1013L38.9019 15.557L36.6099 17.9494M26.3133 6.91772L36.6099 17.9494" stroke="black" stroke-width="3"/>
</svg>
