<svg width="52" height="40" viewBox="0 0 52 40" fill="none" xmlns="http://www.w3.org/2000/svg">
<path d="M37.165 10.8596L37.5124 11.1953L37.8599 10.8596L48.3781 0.695309L51.2805 3.5L37.5124 16.8047L29.1772 8.75L32.0796 5.94531L37.165 10.8596ZM42.0804 30.3596L48.4347 36.5L45.5323 39.3047L39.1534 33.1404L38.806 32.8047L38.4585 33.1404L32.0796 39.3047L29.1772 36.5L35.5315 30.3596L35.9036 30L35.5315 29.6404L29.1772 23.5L32.0796 20.6953L38.4585 26.8596L38.806 27.1953L39.1534 26.8596L45.5323 20.6953L48.4347 23.5L42.0804 29.6404L41.7083 30L42.0804 30.3596ZM0.5 12V8H22.7836V12H0.5ZM0.5 32V28H22.7836V32H0.5Z" stroke="black"/>
</svg>
