<svg width="58" height="50" viewBox="0 0 58 50" fill="none" xmlns="http://www.w3.org/2000/svg">
<path d="M55.0102 21.5066H1M55.0102 21.5066V11.1454M55.0102 21.5066V30.141M1 21.5066V11.1454M1 21.5066V30.141M1 11.1454V4.45374L1.54227 3.05066L2.30145 2.0793L3.27754 1.32379L4.36208 1H51.9735L53.1665 1.43172L54.0341 2.0793L54.7933 3.15859L55.0102 4.45374V11.1454M1 11.1454H18.4611M55.0102 11.1454H42.8091M1 30.141H55.0102M1 30.141V38.7753M55.0102 30.141V31.652V38.7753M1 38.7753V43.9559L1.43382 45.0352L2.30145 46.1145L3.27754 46.87L4.36208 47.4097H18.4611M1 38.7753H55.0102M55.0102 38.7753V43.9559L54.6849 45.1432L54.0341 46.1145L53.0581 46.978L51.9735 47.4097H42.8091M18.4611 11.1454V47.4097M18.4611 11.1454H30.608M18.4611 47.4097H30.608M30.608 47.4097V11.1454M30.608 47.4097H42.8091M30.608 11.1454H42.8091M42.8091 11.1454V47.4097" stroke="black" stroke-width="2"/>
<path d="M56.8962 39.0991C56.8962 44.8411 52.2182 49.5 46.4423 49.5C40.6665 49.5 35.9885 44.8411 35.9885 39.0991C35.9885 33.3572 40.6665 28.6982 46.4423 28.6982C52.2182 28.6982 56.8962 33.3572 56.8962 39.0991Z" fill="white" stroke="black"/>
<g filter="url(#filter0_i_917_93)">
<path d="M52.0188 45.1849L51.6849 44.3542L51.0172 43.3574L50.0155 42.3606L48.6799 41.5299L47.1774 41.1976H45.508L44.0055 41.5299L42.3361 42.6929L41.5013 43.6897L40.8336 45.1849L40.6666 45.5172" stroke="black" stroke-width="1.5"/>
<path d="M48.7647 35.8813C48.7647 37.2988 47.609 38.4541 46.1758 38.4541C44.7426 38.4541 43.5869 37.2988 43.5869 35.8813C43.5869 34.4639 44.7426 33.3086 46.1758 33.3086C47.609 33.3086 48.7647 34.4639 48.7647 35.8813Z" stroke="black" stroke-width="1.5"/>
</g>
<defs>
<filter id="filter0_i_917_93" x="39.9965" y="32.5586" width="12.7183" height="17.2953" filterUnits="userSpaceOnUse" color-interpolation-filters="sRGB">
<feFlood flood-opacity="0" result="BackgroundImageFix"/>
<feBlend mode="normal" in="SourceGraphic" in2="BackgroundImageFix" result="shape"/>
<feColorMatrix in="SourceAlpha" type="matrix" values="0 0 0 0 0 0 0 0 0 0 0 0 0 0 0 0 0 0 127 0" result="hardAlpha"/>
<feOffset dy="4"/>
<feGaussianBlur stdDeviation="2"/>
<feComposite in2="hardAlpha" operator="arithmetic" k2="-1" k3="1"/>
<feColorMatrix type="matrix" values="0 0 0 0 0 0 0 0 0 0 0 0 0 0 0 0 0 0 0.25 0"/>
<feBlend mode="normal" in2="shape" result="effect1_innerShadow_917_93"/>
</filter>
</defs>
</svg>
